<svg xmlns="http://www.w3.org/2000/svg" viewBox="0 0 331.21 72.97"><defs><style>.cls-1{fill:#fff;}</style></defs><title>logo-7</title><g id="Layer_2" data-name="Layer 2"><g id="_12_-_Philoshoping" data-name="12 - Philoshoping"><g id="PHILOSHOPING"><path class="cls-1" d="M94.24,16.19H84.08l-1.92,11H77.74L82.25,1.17h16.1l-.64,3.66H86L84.7,12.58H94.88Z"/><path class="cls-1" d="M120.31,17.21h-5l-1.75,10h-4.42l4.53-26.06,8.21,0c2.82,0,5,.68,6.49,2.05a6.49,6.49,0,0,1,2,5.67,7.76,7.76,0,0,1-1.68,4.38,9.71,9.71,0,0,1-4.17,2.91L128.34,27l0,.27h-4.69Zm-4.37-3.65,4.28,0a6.11,6.11,0,0,0,3.85-1.21,4.79,4.79,0,0,0,1.82-3.29,3.66,3.66,0,0,0-.72-3.1,4.07,4.07,0,0,0-3-1.16h-4.72Z"/><path class="cls-1" d="M158.52,21.17h-9.75l-3.11,6.06H140.9L155,1.17h4l5,26.06h-4.44Zm-7.89-3.66h7.3L156.16,6.74Z"/><path class="cls-1" d="M198.86,27.23h-4.27L186.45,8.57l-3.24,18.66h-4.42l4.53-26.06h4.27l8.14,18.74L199,1.17h4.4Z"/><path class="cls-1" d="M236.58,18.73a10.2,10.2,0,0,1-3.67,6.51,11,11,0,0,1-7.32,2.35,8.65,8.65,0,0,1-4.35-1.18,7.66,7.66,0,0,1-2.93-3.29,12.21,12.21,0,0,1-1.18-4.87,26.93,26.93,0,0,1,.5-5.56A17.69,17.69,0,0,1,220,6.38a11.74,11.74,0,0,1,4.24-4.2A10.78,10.78,0,0,1,229.8.82a8.33,8.33,0,0,1,6.14,2.44,9.6,9.6,0,0,1,2.41,6.54H234a6.4,6.4,0,0,0-1.17-4,4.15,4.15,0,0,0-3.21-1.3,6,6,0,0,0-4.88,2.09,12.22,12.22,0,0,0-2.65,6.35l-.36,2.38-.16,1.82a10.9,10.9,0,0,0,.26,3.46A4.54,4.54,0,0,0,223.21,23a4.23,4.23,0,0,0,2.6.9c3.32.13,5.46-1.59,6.4-5.17Z"/><path class="cls-1" d="M261,27.59a8.82,8.82,0,0,1-4.47-1.22,7.76,7.76,0,0,1-3-3.37,12.88,12.88,0,0,1-1.22-5,23.46,23.46,0,0,1,.4-5.23,17.68,17.68,0,0,1,1.88-5.45,13.72,13.72,0,0,1,3.23-4A10.59,10.59,0,0,1,265,.82a8.06,8.06,0,0,1,6.17,2.66,11,11,0,0,1,2.51,7,23.13,23.13,0,0,1-.4,5.09,18.34,18.34,0,0,1-1.76,5.28,13.6,13.6,0,0,1-3.08,4A10.55,10.55,0,0,1,261,27.59Zm8.13-14.08.16-1.9A11.42,11.42,0,0,0,269,8a4.76,4.76,0,0,0-1.52-2.52,4.3,4.3,0,0,0-2.69-.92,6,6,0,0,0-4,1.27A9.26,9.26,0,0,0,258,9.91a21.38,21.38,0,0,0-1.26,6.87,8.73,8.73,0,0,0,1,5.16,4.08,4.08,0,0,0,3.54,1.95,6.14,6.14,0,0,0,5.11-2.33,13.46,13.46,0,0,0,2.64-6.8Z"/><path class="cls-1" d="M292.11,27.23h-4.4l4.53-26.06h4.4Z"/><path class="cls-1" d="M323.8,20.4q.39-2.58-2.81-3.83L319.54,16a13.44,13.44,0,0,1-5.74-3.35,6,6,0,0,1-1.54-4.49,6.81,6.81,0,0,1,1.51-3.91,8.74,8.74,0,0,1,3.61-2.6,11.66,11.66,0,0,1,4.75-.86,9.49,9.49,0,0,1,4.33,1.06,7,7,0,0,1,2.9,2.81,7.75,7.75,0,0,1,.93,4.11l-4.4,0a4.19,4.19,0,0,0-.9-3.17,4.18,4.18,0,0,0-3.11-1.18,5.81,5.81,0,0,0-3.53,1,4,4,0,0,0-1.69,2.75c-.24,1.52.78,2.71,3,3.58l1.34.49a13,13,0,0,1,5.73,3.44,6.39,6.39,0,0,1,1.43,4.68,7,7,0,0,1-1.45,3.84,8.19,8.19,0,0,1-3.52,2.53,12.74,12.74,0,0,1-4.94.86,10.29,10.29,0,0,1-4.64-1.07,7.44,7.44,0,0,1-4.22-7.18l4.42,0a4.18,4.18,0,0,0,1.09,3.42A5,5,0,0,0,318.48,24a6.15,6.15,0,0,0,3.59-.91A3.82,3.82,0,0,0,323.8,20.4Z"/><path class="cls-1" d="M88.89,60.69h-5l-1.76,10H77.74l4.53-26,8.21,0q4.24,0,6.49,2a6.44,6.44,0,0,1,2,5.68,7.82,7.82,0,0,1-1.68,4.38,9.89,9.89,0,0,1-4.17,2.91l3.85,10.76,0,.26H92.22ZM84.52,57l4.28,0a6.09,6.09,0,0,0,3.85-1.21,4.75,4.75,0,0,0,1.82-3.28,3.69,3.69,0,0,0-.72-3.11,4,4,0,0,0-3-1.15l-4.73,0Z"/><path class="cls-1" d="M127.91,59.08H117.53l-1.39,8h12.13l-.63,3.61H111.09l4.51-26H132l-.64,3.65h-12l-1.25,7.19h10.39Z"/><path class="cls-1" d="M142.35,70.71l4.51-26,7,0a9.67,9.67,0,0,1,5.6,1.61,9.11,9.11,0,0,1,3.41,4.48,13.31,13.31,0,0,1,.65,6.29l-.2,1.41A15.65,15.65,0,0,1,161,64.85a12.76,12.76,0,0,1-4.73,4.33,13.44,13.44,0,0,1-6.37,1.53Zm8.3-22.4L147.4,67.1l2.61,0a8.1,8.1,0,0,0,5.87-2.25,10.76,10.76,0,0,0,3-6.2,21.08,21.08,0,0,0,.34-4.74,6.38,6.38,0,0,0-1.51-4.06A5,5,0,0,0,154,48.33Z"/><path class="cls-1" d="M176.74,70.71l4.52-26,8,0c2.81,0,4.93.62,6.34,1.83a5.66,5.66,0,0,1,1.87,5q-.33,3.8-4.63,5.71a4.55,4.55,0,0,1,2.48,2.09,6.29,6.29,0,0,1,.75,3.63,7.53,7.53,0,0,1-2.87,5.66,10.81,10.81,0,0,1-6.91,2.07ZM183.2,59l-1.42,8.14,4.64,0A5.69,5.69,0,0,0,190,66a4.43,4.43,0,0,0,1.74-3,3.78,3.78,0,0,0-.55-2.89A3.37,3.37,0,0,0,188.49,59Zm.57-3.33,4.06,0a5.78,5.78,0,0,0,3.56-1A4.1,4.1,0,0,0,193,51.8c.29-2.23-.83-3.39-3.39-3.47l-4.59,0Z"/><path class="cls-1" d="M215.36,67.1h11.49l-.65,3.61H210.32l4.53-26h4.41Z"/><path class="cls-1" d="M256.33,64.65h-9.75l-3.11,6.06h-4.76l14.06-26h4l5,26.05h-4.44ZM248.45,61h7.29L254,50.22Z"/><path class="cls-1" d="M275.87,70.71l4.51-26,7.05,0A9.72,9.72,0,0,1,293,46.29a9.17,9.17,0,0,1,3.41,4.48,13.44,13.44,0,0,1,.64,6.29l-.2,1.41a15.65,15.65,0,0,1-2.37,6.38,12.76,12.76,0,0,1-4.73,4.33,13.41,13.41,0,0,1-6.37,1.53Zm8.3-22.4L280.92,67.1l2.61,0a8.14,8.14,0,0,0,5.88-2.25,10.81,10.81,0,0,0,3-6.2,20.51,20.51,0,0,0,.34-4.74,6.38,6.38,0,0,0-1.51-4.06,5,5,0,0,0-3.75-1.54Z"/><path class="cls-1" d="M327.08,59.08H316.7l-1.39,8h12.12l-.62,3.61H310.26l4.51-26h16.44l-.65,3.65h-12l-1.25,7.19H327.7Z"/><path class="cls-1" d="M11.74,22.13H4v8H0V10.58H12.71v3.26H4v5h7.72Z"/><path class="cls-1" d="M38.47,55.54h-3.2v7.15h-4V43.17H38.5a8.18,8.18,0,0,1,5.33,1.54,5.33,5.33,0,0,1,1.88,4.36,6,6,0,0,1-.87,3.33,5.89,5.89,0,0,1-2.62,2.13l4.23,8v.18H42.13Zm-3.2-3.25h3.24a3.32,3.32,0,0,0,2.35-.78,2.76,2.76,0,0,0,.83-2.12,3,3,0,0,0-.79-2.17,3.23,3.23,0,0,0-2.4-.8H35.27Z"/><g id="Rectangle"><polygon class="cls-1" points="39.83 0 0.26 70.78 4.21 72.97 43.78 2.19 39.83 0"/></g></g></g></g></svg>