<svg xmlns="http://www.w3.org/2000/svg" viewBox="0 0 391.52 124.64"><defs><style>.cls-1{fill:#fff;}.cls-2{fill:none;}</style></defs><title>logo-2</title><g id="Layer_2" data-name="Layer 2"><g id="_05_-_Magnet" data-name="05 - Magnet"><g id="_-" data-name="-"><path class="cls-1" d="M102.23,122l1.83-4a13.73,13.73,0,0,0,7.67,2.42c3.18,0,4.48-1.06,4.48-2.49,0-4.34-13.51-1.36-13.51-10,0-3.94,3.18-7.23,9.79-7.23a15.62,15.62,0,0,1,8.07,2.06l-1.66,4.08a13.11,13.11,0,0,0-6.44-1.83c-3.19,0-4.42,1.2-4.42,2.66,0,4.27,13.52,1.32,13.52,9.84,0,3.88-3.23,7.2-9.87,7.2C108,124.64,104.29,123.54,102.23,122Z"/><path class="cls-1" d="M141,105.41h-7.44V101h20.26v4.38h-7.44v18.83H141Z"/><path class="cls-1" d="M167.41,114V101h5.38v12.8c0,4.41,1.92,6.23,5.18,6.23s5.18-1.82,5.18-6.23V101h5.31v13c0,6.83-3.92,10.61-10.53,10.61S167.41,120.86,167.41,114Z"/><path class="cls-1" d="M205.06,101h10.56c7.6,0,12.81,4.58,12.81,11.61s-5.21,11.6-12.81,11.6H205.06Zm10.29,18.8c4.62,0,7.64-2.75,7.64-7.19s-3-7.2-7.64-7.2h-4.91v14.39Z"/><path class="cls-1" d="M243.77,101h5.38v23.21h-5.38Z"/><path class="cls-1" d="M264.49,112.64c0-6.9,5.38-12,12.72-12s12.71,5.08,12.71,12-5.41,12-12.71,12S264.49,119.53,264.49,112.64Zm20,0a7.27,7.27,0,1,0-7.27,7.42A7.09,7.09,0,0,0,284.48,112.64Z"/><path class="cls-1" d="M391.52,43h-7.79v7.6H378V43H370.2V37.54H378v-7.6h5.78v7.6h7.79Z"/><path class="cls-1" d="M256.11,24.62v31.3h-6l-15.63-19v19h-7.16V24.62h6l15.59,19v-19Z"/><path class="cls-1" d="M296.78,50.11v5.81H272.5V24.62h23.69v5.81H279.71v6.8h14.56v5.64H279.71v7.24Z"/><path class="cls-1" d="M318,30.52H308v-5.9h27.32v5.9h-10v25.4H318Z"/><polygon class="cls-2" points="117.28 43.72 127.22 43.72 122.25 31.73 117.28 43.72"/><path class="cls-2" d="M167.3,30.25a10.61,10.61,0,0,1,8.11,3.54l4.66-4.3c-3-3.53-7.62-5.41-13.12-5.41-10,0-17.25,6.75-17.25,16.19S157,56.46,166.81,56.46a21.7,21.7,0,0,0,12.68-4V39.78h-6.63V49a11.61,11.61,0,0,1-5.65,1.34c-6,0-10.16-4.16-10.16-10S161.21,30.25,167.3,30.25Z"/><polygon class="cls-2" points="118.71 24.62 104.74 55.92 112.17 55.92 114.95 49.22 129.5 49.22 132.28 55.92 139.9 55.92 125.88 24.62 118.71 24.62"/><rect class="cls-2" x="202.73" y="8.25" width="145.44" height="66.02"/><path class="cls-1" d="M30.85,0V82.52H356.43V0ZM85.66,55.92l0-18.78L76.39,52.61H73.12L63.94,37.54V55.92H57.13V24.62h6L74.87,44.07,86.42,24.62h6l.09,31.3Zm46.62,0-2.78-6.7H115l-2.78,6.7h-7.43l14-31.3h7.17l14,31.3Zm34.93-5.63A11.61,11.61,0,0,0,172.86,49V39.78h6.63v12.7a21.7,21.7,0,0,1-12.68,4c-9.85,0-17.11-6.75-17.11-16.19S157,24.08,167,24.08c5.5,0,10.07,1.88,13.12,5.41l-4.66,4.3a10.61,10.61,0,0,0-8.11-3.54c-6.09,0-10.25,4.07-10.25,10S161.21,50.29,167.21,50.29Zm181,24H202.73v-66H348.16Z"/><rect class="cls-2" x="202.73" y="8.25" width="145.44" height="66.02"/><path class="cls-2" d="M167.3,30.25a10.61,10.61,0,0,1,8.11,3.54l4.66-4.3c-3-3.53-7.62-5.41-13.12-5.41-10,0-17.25,6.75-17.25,16.19S157,56.46,166.81,56.46a21.7,21.7,0,0,0,12.68-4V39.78h-6.63V49a11.61,11.61,0,0,1-5.65,1.34c-6,0-10.16-4.16-10.16-10S161.21,30.25,167.3,30.25Z"/><polygon class="cls-1" points="117.28 43.72 127.22 43.72 122.25 31.73 117.28 43.72"/><rect class="cls-2" x="202.73" y="8.25" width="145.44" height="66.02"/><path class="cls-1" d="M0,37.27H12.67v5.59H0Z"/></g></g></g></svg>