<svg xmlns="http://www.w3.org/2000/svg" viewBox="0 0 347.24 75.1"><defs><style>.cls-1{fill:#fff;}.cls-2{opacity:0.9;}</style></defs><title>logo-8</title><g id="Layer_2" data-name="Layer 2"><g id="_14_-_Villatex" data-name="14 - Villatex"><path class="cls-1" d="M131.83,20.19A34.62,34.62,0,0,1,135.62,17a6,6,0,0,1,2.51-1.29c.71,0,1.06.67,1.06,2a26.38,26.38,0,0,1-.53,5.09,37.85,37.85,0,0,1-1.45,5.36q-1.5,4.45-4,9.88t-4.79,9.58q-1.5,2.61-3.9,6.32a23.17,23.17,0,0,1-3.34,4.2,11.88,11.88,0,0,1-3.47,2.2,18.65,18.65,0,0,1-3.08.92,15.81,15.81,0,0,1-2.54.27,3.69,3.69,0,0,1-2.6-.82,10.4,10.4,0,0,1-2-3.91,86,86,0,0,1-2.14-9q-1.08-5.58-1.45-9.69-.28-2.86-.28-8,0-9.43,2.06-11.47A10.7,10.7,0,0,1,108.44,17a20.73,20.73,0,0,1,3.89-1.48,10.1,10.1,0,0,1,2.53-.41c1.69,0,2.53.93,2.53,2.79,0,1-.1,2.86-.31,5.65q-.54,8.43-.54,13.23a80.32,80.32,0,0,0,.72,12.55q.42,2,.63,2.79A36.79,36.79,0,0,0,120.08,49c.58-1,1.15-2,1.69-3.07,1.12-2.27,1.9-4,2.36-5.28a66.61,66.61,0,0,0,3.44-11.23,20.23,20.23,0,0,1,1.87-6A14.86,14.86,0,0,1,131.83,20.19Z"/><path class="cls-1" d="M145.35,61.7a4.31,4.31,0,0,1-2.81-1.4,8.12,8.12,0,0,1-1.79-2.94,13.29,13.29,0,0,1-.53-4.1,44.93,44.93,0,0,1,2.1-12.67q2.12-7.06,4.78-10.23A3.56,3.56,0,0,1,150,29a3.71,3.71,0,0,1,3.2,1.8,8.32,8.32,0,0,1,1.21,4.73,48.48,48.48,0,0,1-1.25,10.12,93.35,93.35,0,0,1-3.51,12.06,6.76,6.76,0,0,1-2.19,3.4,4,4,0,0,1-2.09.55Zm4.11-34.19q-3.22-.11-3.22-3.85a12.56,12.56,0,0,1,.94-4.33,10.29,10.29,0,0,1,2.14-3.66,3.9,3.9,0,0,1,1.25-.92,4.2,4.2,0,0,1,1.63-.27,3.36,3.36,0,0,1,2.51.83,3.9,3.9,0,0,1,.81,2.77,12.54,12.54,0,0,1-.84,4.58,9.56,9.56,0,0,1-2.24,3.5,4.18,4.18,0,0,1-2.88,1.35Z"/><path class="cls-1" d="M176.33,35.91a67.81,67.81,0,0,0,2.29-8,32.92,32.92,0,0,0,.92-6.44c0-.41-.11-.61-.34-.61s-1,.81-1.92,2.43a34.43,34.43,0,0,0-2.29,5q-2,5.53-3.06,9.2a52,52,0,0,0-1.49,6.14A31.44,31.44,0,0,0,170,48.6a7.86,7.86,0,0,0,.49,3.23,1.67,1.67,0,0,0,1.6,1,7.56,7.56,0,0,0,4.21-1.65,17.42,17.42,0,0,0,4.2-4.34c1-1.33,1.75-2,2.3-2s1.06.55,1.06,1.66a12.8,12.8,0,0,1-2.29,7.11,18.08,18.08,0,0,1-5.91,5.63,14.2,14.2,0,0,1-7.37,2.16A9.95,9.95,0,0,1,157.88,51a30,30,0,0,1,1.64-8.93,63.46,63.46,0,0,1,4.4-10.31,64.52,64.52,0,0,1,6-9.4,31.12,31.12,0,0,1,6.5-6.47,7.33,7.33,0,0,1,4.42-1.46,5.41,5.41,0,0,1,3.35,1.14,7.34,7.34,0,0,1,2.33,3.18,12,12,0,0,1,.82,4.52,27,27,0,0,1-2.11,10.45,26.52,26.52,0,0,1-5.86,8.84A19.15,19.15,0,0,1,176,45.37a5.65,5.65,0,0,1-2.87,1c-.8,0-1.2-.31-1.2-.92a5,5,0,0,1,.89-1.94,41.27,41.27,0,0,0,2.81-5.65c.09-.25.19-.51.3-.8S176.17,36.41,176.33,35.91Z"/><path class="cls-1" d="M208.43,35.91a67.81,67.81,0,0,0,2.29-8,32.34,32.34,0,0,0,.93-6.44c0-.41-.12-.61-.35-.61s-1,.81-1.91,2.43a33.45,33.45,0,0,0-2.3,5q-2,5.53-3.06,9.2a52,52,0,0,0-1.49,6.14,31.44,31.44,0,0,0-.41,5.07,7.83,7.83,0,0,0,.5,3.23,1.66,1.66,0,0,0,1.59,1,7.53,7.53,0,0,0,4.21-1.65,17.63,17.63,0,0,0,4.21-4.34c1-1.33,1.74-2,2.29-2,.71,0,1.06.55,1.06,1.66a12.72,12.72,0,0,1-2.29,7.11,18.08,18.08,0,0,1-5.91,5.63,14.17,14.17,0,0,1-7.37,2.16A9.95,9.95,0,0,1,190,51a30,30,0,0,1,1.64-8.93,66.79,66.79,0,0,1,10.44-19.71,31.12,31.12,0,0,1,6.5-6.47A7.33,7.33,0,0,1,213,14.41a5.41,5.41,0,0,1,3.35,1.14,7.26,7.26,0,0,1,2.33,3.18,12,12,0,0,1,.82,4.52,27.2,27.2,0,0,1-2.1,10.45,26.7,26.7,0,0,1-5.87,8.84,19.47,19.47,0,0,1-3.42,2.83,5.71,5.71,0,0,1-2.88,1c-.8,0-1.2-.31-1.2-.92a5,5,0,0,1,.89-1.94,40.14,40.14,0,0,0,2.81-5.65c.09-.25.19-.51.31-.8S208.27,36.41,208.43,35.91Z"/><path class="cls-1" d="M245.49,51.46v.13l-.14-.13a64.52,64.52,0,0,1-5.83,6.07,26,26,0,0,1-4.89,3.55,8.85,8.85,0,0,1-4.13,1.19,8.5,8.5,0,0,1-6.33-2.55,8.83,8.83,0,0,1-2.5-6.46,16.81,16.81,0,0,1,1.23-5.72,30.58,30.58,0,0,1,3.39-6.46,33.32,33.32,0,0,1,9-8.78,19.68,19.68,0,0,1,10.81-3.7,13.31,13.31,0,0,1,7.21,1.78,5.25,5.25,0,0,1,2.82,4.51,8.12,8.12,0,0,1-1.4,4.25,4.28,4.28,0,0,1,2.32.39c.32.26.48.87.48,1.82,0-.09-.05.38-.17,1.4q-.19,3.36-.2,6.29,0,1.53,0,2.31c0,.53.07,1.13.14,1.81s.13,1.22.2,1.63a16.38,16.38,0,0,0,.89,3.16,16.23,16.23,0,0,1-3.93,2.95,8.61,8.61,0,0,1-3.84.93q-5.26,0-5.27-8.78A15.58,15.58,0,0,1,245.49,51.46Zm2.06-7.79-.65.2a15.63,15.63,0,0,1-3.56.68c-.89,0-1.34-.23-1.34-.68a4.28,4.28,0,0,1,.55-1.26,10,10,0,0,0,1.92-5.44A6.76,6.76,0,0,0,244,34.5c-.34-.81-.72-1.21-1.13-1.21s-.92.39-1.67,1.16a31.65,31.65,0,0,0-5.05,7,14.24,14.24,0,0,0-1.87,6.43A5.71,5.71,0,0,0,235,51a2.26,2.26,0,0,0,1.94,1.23c.66,0,1.9-.7,3.71-2.11a62.81,62.81,0,0,0,6.11-5.58l.92-.75Z"/><path class="cls-1" d="M267.22,28.46l.14-.41a48.49,48.49,0,0,1,3.91-8.91A7.58,7.58,0,0,1,273.46,17a9.43,9.43,0,0,1,5-1.67,3.14,3.14,0,0,1,2.09.62,2.2,2.2,0,0,1,.72,1.77,11,11,0,0,1-1,3.19,45.52,45.52,0,0,0-2.62,7.52,10.25,10.25,0,0,1,1.13.2,8.83,8.83,0,0,1,2.71.7,1.51,1.51,0,0,1,.65,1.41,6.3,6.3,0,0,1-.93,3.34,5.63,5.63,0,0,1-2.42,2.25,11.79,11.79,0,0,1-3.66.67c-.3.89-.62,2.1-1,3.65q-.3,2-.67,5.65a15.86,15.86,0,0,0-.21,2.48q0,5.37,5.24,5.37h.31c.41,0,.61.07.61.2,0,.37-.38,1-1.16,1.84a15.43,15.43,0,0,1-2.57,2.28,13.83,13.83,0,0,1-3.29,1.63,9.92,9.92,0,0,1-3.22.61,7.59,7.59,0,0,1-5.84-2.41,9,9,0,0,1-2.25-6.4,21.9,21.9,0,0,1,.6-4.45q.6-2.76,1.86-7.38c.14-.55.29-1.12.45-1.72s.25-1,.27-1.07a3,3,0,0,1-1.95-.58,2.33,2.33,0,0,1-.58-1.77,6.06,6.06,0,0,1,1.66-4.05A7.07,7.07,0,0,1,267.22,28.46Z"/><path class="cls-1" d="M296.73,51.86a2.38,2.38,0,0,0,2.67,2q2.57,0,6.67-3c1.6-1.16,2.67-1.73,3.22-1.73a3.61,3.61,0,0,1,1.91.54c.6.36.89.74.89,1.12a2.67,2.67,0,0,1-1,1.6A35,35,0,0,1,306.92,56a35.43,35.43,0,0,1-4.55,2.86,25.3,25.3,0,0,1-4.38,1.8,13.41,13.41,0,0,1-3.9.67,9.54,9.54,0,0,1-6.84-2.43,8.51,8.51,0,0,1-2.57-6.49,21.65,21.65,0,0,1,1.35-7,31.29,31.29,0,0,1,3.65-7.29,24.5,24.5,0,0,1,6.63-6.64,17.05,17.05,0,0,1,9.31-3.19,6.45,6.45,0,0,1,5.05,2,8,8,0,0,1,1.83,5.56,13.11,13.11,0,0,1-1.45,5.75,20.56,20.56,0,0,1-4.3,5.75A22.87,22.87,0,0,1,302.18,51a8.13,8.13,0,0,1-3.91,1.29A3.53,3.53,0,0,1,296.73,51.86Zm-.07-1.08a10.45,10.45,0,0,0,2.39-2.11,16.48,16.48,0,0,0,2.81-5.07,21.53,21.53,0,0,0,1.23-4.19,22.66,22.66,0,0,0,.45-4.32c0-1.24-.27-1.87-.79-1.87q-1.1,0-3.35,4.8a40.37,40.37,0,0,0-2.18,5.77,18,18,0,0,0-.84,4.94A10.51,10.51,0,0,0,296.66,50.78Z"/><path class="cls-1" d="M330.09,54l-.37.34c-.12.09-.29.25-.52.46s-.44.41-.65.6a55,55,0,0,1-5.83,4.89,6.44,6.44,0,0,1-3.51,1.3,4.77,4.77,0,0,1-3.37-1.21,4,4,0,0,1-1.32-3.11,5.34,5.34,0,0,1,1.82-3.88c.31-.32,1.14-1,2.46-2,2.08-1.61,3.52-2.79,4.35-3.54s1.71-1.77,2.46-2.65c-.94-2-1.87-3.86-2.81-5.51-.61-1-1.17-1.89-1.67-2.73a25.72,25.72,0,0,0-2.21-2.72,12.86,12.86,0,0,0-2.14-1.8c-.89-.52-1.33-1-1.33-1.46s.44-.81,1.33-1.13a10.09,10.09,0,0,1,3.29-.47,13.26,13.26,0,0,1,7.83,2.31c.6.41,1.11.78,1.54,1.12a20.81,20.81,0,0,1,1.61,1.45c.64.62,1.3,1.28,2,2a26.87,26.87,0,0,1,5.4-5.46,8.46,8.46,0,0,1,4.76-1.93,7.26,7.26,0,0,1,2.74.53c.87.35,1.3.73,1.3,1.14a6,6,0,0,1-1.11,3.06,39.23,39.23,0,0,1-3.65,4.66c-1.39,1.66-2.23,2.67-2.51,3s-.83,1.17-1.63,2.42l8.15,13a3.91,3.91,0,0,1,.68,1.94c0,.93-.73,1.79-2.21,2.58a9.81,9.81,0,0,1-4.77,1.19A8.35,8.35,0,0,1,333,59,41.8,41.8,0,0,1,330.09,54Z"/><g id="Icon" class="cls-2"><path class="cls-1" d="M43.4,23.84l.49-.72-1.38-.88-1.44-.92-.61-.41-.48.56C36,26,19.63,44.15,0,56.64V63.5C25,48.34,39,30.12,43.4,23.84ZM36.59,38.42,36,37.49l-.74.81A151.49,151.49,0,0,1,16.35,55.65l-.55.43.32.62c.26.51.65,1.25,1.13,2.15l.41.77.75-.43a73.1,73.1,0,0,0,19.93-17l.39-.47-.34-.51Zm-23,19.32-.79.58c-.93.68-1.88,1.35-2.85,2l-.61.42.34.66c1.31,2.5,4,7.44,7.93,13.68h6.16c-4.91-7.54-8.21-13.59-9.73-16.49ZM.39,66.49,0,66.72V75.1H5.2C3.1,71.55,1.61,68.8.8,67.27ZM48,56.17l.41-.5L48,55.15C47.2,54.06,46.45,53,45.73,52l-.62-.9-.71.84A74.22,74.22,0,0,1,24,68.73l-.78.42.47.76q1,1.59,2.1,3.3l.41.64.68-.34A71.75,71.75,0,0,0,48,56.17ZM7.08,62.3l-.77.52c-1,.62-1.94,1.24-2.93,1.86l-.66.41.36.69c.94,1.8,2.73,5.09,5.27,9.32h6.08c-3.41-5.48-5.75-9.77-6.92-12Zm30.5-42.23.62-.7-.76-.55c-.95-.66-1.87-1.33-2.77-2l-.6-.43-.51.53C28.76,21.87,15.2,35.31,0,45.62v7.77C17.54,41.87,32.43,25.89,37.58,20.07ZM.59,0,0,1.78v5.1C2.87,4.27,5.33,1.92,7.3,0Zm17,3.12.58-.59-.58-.59C16.9,1.29,16.27.64,15.65,0H11.18C8.58,2.61,4.72,6.38,0,10.58v8.85C8.27,12.43,14.8,5.94,17.55,3.12ZM31.25,15.4l.65-.67-.73-.58c-1.22-1-2.39-1.93-3.54-2.89l-.6-.51-.54.57A250.75,250.75,0,0,1,0,34.87v7.4C14.17,32.35,26.84,19.89,31.25,15.4ZM24.36,9.6,25,9l-.66-.59C23.06,7.25,21.83,6.12,20.67,5l-.6-.58-.59.6A253,253,0,0,1,0,23v8.36A260.69,260.69,0,0,0,24.36,9.6Zm-4.64,52L19,62l.42.74q.9,1.56,2,3.39l.41.69.71-.39A72.59,72.59,0,0,0,43.08,49.26l.4-.49-.36-.52C42.34,47.12,41.61,46,40.94,45l-.63-.94-.72.87A75.25,75.25,0,0,1,19.72,61.58ZM31.47,0A124.55,124.55,0,0,0,75.11,24.89V18.12A114.64,114.64,0,0,1,40.31,0ZM19.41,0c11.81,12,30.47,26.74,55.7,34.53V27.7C54.91,21.46,39,10.42,27.41,0ZM74.12,0H60.34A106.94,106.94,0,0,0,75.11,6.42V.36ZM52.93,63l.41-.51L53,61.91l-2.3-3.1L50,58l-.69.81A74.69,74.69,0,0,1,29.63,75.1H40A72.67,72.67,0,0,0,52.93,63ZM44.89,0A110.56,110.56,0,0,0,75.11,15.28v-6A110.33,110.33,0,0,1,54.88,0ZM66.62,34.51l1.44,2.14c1.75,2.59,4.15,6.05,7,10.05V37.36c-2.12-.63-4.13-1.28-6.06-2ZM60.84,72l-.64-.79-.66.78c-.92,1.09-1.85,2.12-2.78,3.1h6.62L63.25,75C62.44,74,61.63,73,60.84,72Zm-2.38-3L58,68.5c-.81-1-1.6-2-2.36-3L55,64.66l-.68.79a73.83,73.83,0,0,1-9.9,9.65h8.46A67.44,67.44,0,0,0,58,69.56Zm3.73-36.34-.24-.1c-2.42-1-4.87-2.18-7.29-3.4l-2.85-1.44,1.77,2.65c4.29,6.44,12,17.61,21.53,29.24V51.3c-7-9.43-11.65-16.63-12.78-18.39ZM41.25,31.32l-.74.91c-.68.85-1.43,1.75-2.23,2.68l-.4.47.33.52A378,378,0,0,0,66.93,75.1h6.81A369.62,369.62,0,0,1,41.88,32.31Zm5.15-7-.73,1.07c-.57.84-1.33,1.92-2.31,3.22L43,29l.3.49a375.51,375.51,0,0,0,31.79,43V63.9a380,380,0,0,1-28-38.53Z"/></g></g></g></svg>