<svg xmlns="http://www.w3.org/2000/svg" viewBox="0 0 194.05 108.02"><defs><style>.cls-1{fill:#fff;}.cls-2{fill:none;}</style></defs><title>logo-5</title><g id="Layer_2" data-name="Layer 2"><g id="_06_-_Breads" data-name="06 - Breads"><g id="ADSVERTISING"><path class="cls-1" d="M47.16,53.67c2.13-3.43,4.93-5.46,8.92-5.18,1.12.08,3-.71,3,1.4,0,1.5-.11,3.08-2.46,3.57-8.43,1.78-9.28,3-9.28,11.39,0,4.89,0,9.79,0,14.68,0,2-.25,3.49-2.9,3.4C42,82.85,42,81.39,42,79.64c0-6.85,0-13.71,0-20.56,0-2.13.07-4.28-1.18-6.15-.9-1.34-1.48-2.6.15-3.79s2.79.21,3.77,1.14A22.08,22.08,0,0,1,47.16,53.67Z"/><path class="cls-2" d="M115.41,60c.14-3.6-2-4.94-4.71-5.16l-1.43,4a3,3,0,0,0,.59,3,14.74,14.74,0,0,0,1.48-.25C112.72,61.18,115.28,63.45,115.41,60Z"/><path class="cls-2" d="M168.22,56.41c.73-3.7,3.42-6.49,7.78-7.84L177.64,44a1.23,1.23,0,0,1,.89-.79A11.33,11.33,0,0,0,186.79,36l.67-1.86a11.34,11.34,0,0,0-6.75-14.53L135,3.13A11.34,11.34,0,0,0,120.57,10l-.67,1.86a11.33,11.33,0,0,0,1.73,10.88,1.22,1.22,0,0,1,.18,1.18l-8.56,23.79c6.24.43,11.22,3.56,11.12,12.28,0,2,0,3.92,0,6.47,0,.3.07.61.09.92l6.5,2.34a25.65,25.65,0,0,1,.23-8.24h0a1.2,1.2,0,0,1-.69-.64l-.63-1.33a1.26,1.26,0,0,1,.59-1.65,1.22,1.22,0,0,1,1.54.45h0c2.9-9.06,8.57-11.73,19.41-9.07,0-4.48-.06-8.86,0-13.24,0-.31,0-.64-.06-1a1.24,1.24,0,0,1-.74,0,1.2,1.2,0,0,1-.69-.64l-.63-1.34a1.24,1.24,0,0,1,.6-1.64,1.22,1.22,0,0,1,1.63.59l.28.61a2.49,2.49,0,0,1,1.8-.51c2.65,0,5.56-.3,6.46,3.09.44,7.36.35,14.81.27,22.25A1.23,1.23,0,0,1,161,58l.62,1.34A1.25,1.25,0,0,1,161,61a1.3,1.3,0,0,1-.67.09c0,3.15,0,6.29,0,9.43,0,2.3-.23,4.71,1.11,6.68a2.76,2.76,0,0,1,0,3.5,3,3,0,0,0,3.62-1.84l5.28-14.66A8.45,8.45,0,0,1,168.22,56.41Zm9.91-26.63a1.21,1.21,0,0,1,1.63.58l.63,1.34a1.25,1.25,0,0,1-.59,1.65,1.28,1.28,0,0,1-.94,0,1.2,1.2,0,0,1-.69-.64l-.63-1.34A1.24,1.24,0,0,1,178.13,29.78ZM127.71,49a1.19,1.19,0,0,1-.94,0,1.23,1.23,0,0,1-.69-.64l-.63-1.33a1.25,1.25,0,0,1,.6-1.65,1.22,1.22,0,0,1,1.63.59l.62,1.34A1.24,1.24,0,0,1,127.71,49Zm2.18-33.65a1.19,1.19,0,0,1-.94,0,1.22,1.22,0,0,1-.69-.63l-.63-1.34a1.26,1.26,0,0,1,.59-1.65,1.23,1.23,0,0,1,1.64.59l.62,1.34A1.24,1.24,0,0,1,129.89,15.38Zm5,13.61A1.19,1.19,0,0,1,134,29a1.23,1.23,0,0,1-.69-.64l-.62-1.33a1.25,1.25,0,0,1,.59-1.65,1.22,1.22,0,0,1,1.63.59l.62,1.34A1.23,1.23,0,0,1,134.92,29Zm4.39,12.42a1.19,1.19,0,0,1-.94.05,1.23,1.23,0,0,1-.69-.64l-.62-1.33a1.24,1.24,0,0,1,.59-1.65,1.22,1.22,0,0,1,1.63.59l.62,1.34A1.24,1.24,0,0,1,139.31,41.41Zm7.21-20a1.19,1.19,0,0,1-.94.05,1.27,1.27,0,0,1-.69-.64l-.62-1.33a1.25,1.25,0,0,1,.59-1.65,1.22,1.22,0,0,1,1.63.59l.63,1.34A1.24,1.24,0,0,1,146.52,21.37Zm16.64,6a1.21,1.21,0,0,1-1.63-.59l-.62-1.34a1.23,1.23,0,1,1,2.22-1.05l.62,1.33A1.25,1.25,0,0,1,163.16,27.36Zm2.92,43.07c-1.21.21-.9-1-.91-1.65s-.3-1.63,1.13-1.77c.4.55,1.22,1.18,1.2,1.77A2.25,2.25,0,0,1,166.08,70.43ZM167.26,41a1.25,1.25,0,0,1-.7-.64L165.94,39a1.24,1.24,0,0,1,.59-1.64,1.21,1.21,0,0,1,1.63.58l.63,1.34a1.24,1.24,0,0,1-1.53,1.7Z"/><path class="cls-2" d="M172.14,75.11c2.76,1.51,5.79,2.55,9.05,1.87,1.45-.3,2.88-.92,3.18-2.67.51-3.83-4.41-4.47-7-5.77a22.91,22.91,0,0,1-5-2.62l-3.22,9C169.84,74.3,170.76,74.36,172.14,75.11Z"/><path class="cls-2" d="M104.7,72.63c.06,2.65,1.73,4.31,4.51,3.94,3.31-.44,6.69-1.17,6.2-5.89.62-3.63-2.12-3.29-4.36-3.18C107.76,67.67,104.61,68.46,104.7,72.63Z"/><path class="cls-2" d="M151.41,68.93a28,28,0,0,1,0-3.43,30.78,30.78,0,0,1,0-4.9c.56-3.5-1.07-5.26-4.34-5.76s-4.83,1.57-5.83,4.19a20.27,20.27,0,0,0-.73,10.66,15,15,0,0,0,1,3.85l6.12,2.21C150.58,74.91,151.84,72.47,151.41,68.93Zm-2.68-1.49a1.21,1.21,0,0,1-.93,0,1.25,1.25,0,0,1-.7-.64l-.62-1.34a1.24,1.24,0,0,1,.59-1.64,1.21,1.21,0,0,1,1.63.59l.63,1.33A1.25,1.25,0,0,1,148.73,67.44Z"/><path class="cls-1" d="M146.49,18.39a1.22,1.22,0,0,0-1.63-.59,1.25,1.25,0,0,0-.59,1.65l.62,1.33a1.27,1.27,0,0,0,.69.64,1.19,1.19,0,0,0,.94-.05,1.24,1.24,0,0,0,.6-1.64Z"/><path class="cls-1" d="M168.79,39.32,168.16,38a1.21,1.21,0,0,0-1.63-.58,1.24,1.24,0,0,0-.59,1.64l.62,1.34a1.23,1.23,0,0,0,2.23-1.06Z"/><path class="cls-1" d="M163.13,24.38a1.23,1.23,0,1,0-2.22,1.05l.62,1.34a1.21,1.21,0,0,0,1.63.59,1.25,1.25,0,0,0,.59-1.65Z"/><path class="cls-1" d="M151.81,32.61l-.28-.61a1.22,1.22,0,0,0-1.63-.59,1.24,1.24,0,0,0-.6,1.64l.63,1.34a1.2,1.2,0,0,0,.69.64,1.24,1.24,0,0,0,.74,0C151.29,34.12,151.21,33.17,151.81,32.61Z"/><path class="cls-1" d="M139.28,38.43a1.22,1.22,0,0,0-1.63-.59,1.24,1.24,0,0,0-.59,1.65l.62,1.33a1.23,1.23,0,0,0,.69.64,1.19,1.19,0,0,0,.94-.05,1.24,1.24,0,0,0,.59-1.64Z"/><path class="cls-1" d="M134.89,26a1.22,1.22,0,0,0-1.63-.59,1.25,1.25,0,0,0-.59,1.65l.62,1.33A1.23,1.23,0,0,0,134,29a1.19,1.19,0,0,0,.94-.05,1.23,1.23,0,0,0,.59-1.64Z"/><path class="cls-1" d="M178.17,32.76a1.2,1.2,0,0,0,.69.64,1.28,1.28,0,0,0,.94,0,1.25,1.25,0,0,0,.59-1.65l-.63-1.34a1.21,1.21,0,0,0-1.63-.58,1.24,1.24,0,0,0-.59,1.64Z"/><path class="cls-1" d="M127.68,46.05a1.22,1.22,0,0,0-1.63-.59,1.25,1.25,0,0,0-.6,1.65l.63,1.33a1.23,1.23,0,0,0,.69.64,1.19,1.19,0,0,0,.94,0,1.24,1.24,0,0,0,.59-1.64Z"/><path class="cls-1" d="M129.86,12.4a1.23,1.23,0,0,0-1.64-.59,1.26,1.26,0,0,0-.59,1.65l.63,1.34a1.22,1.22,0,0,0,.69.63,1.19,1.19,0,0,0,.94,0,1.24,1.24,0,0,0,.59-1.64Z"/><path class="cls-1" d="M130.43,57.88a1.26,1.26,0,0,0-.59,1.65l.63,1.33a1.2,1.2,0,0,0,.69.64h0a26.62,26.62,0,0,1,.78-3.17A1.22,1.22,0,0,0,130.43,57.88Z"/><path class="cls-1" d="M152.87,80.26l1.78.64A3.06,3.06,0,0,0,152.87,80.26Z"/><path class="cls-1" d="M113.25,47.73l8.56-23.79a1.22,1.22,0,0,0-.18-1.18,11.33,11.33,0,0,1-1.73-10.88l.67-1.86A11.34,11.34,0,0,1,135,3.13l45.68,16.44a11.34,11.34,0,0,1,6.75,14.53L186.79,36a11.33,11.33,0,0,1-8.26,7.28,1.23,1.23,0,0,0-.89.79L176,48.57a19.58,19.58,0,0,1,2.83-.63l.89-2.45a13.82,13.82,0,0,0,9.38-8.7l.67-1.86a13.79,13.79,0,0,0-8.23-17.68L135.87.81a13.8,13.8,0,0,0-17.61,8.38l-.67,1.86a13.79,13.79,0,0,0,1.69,12.68l-8.62,24A24.7,24.7,0,0,1,113.25,47.73Z"/><path class="cls-1" d="M184.82,62.18c-2-.75-4-1.49-5.95-2.42a2.75,2.75,0,0,1-1.7-3.22c1-3.94,8.05-2.4,10.56-1,3,1.59,4.16.37,5.08-2.22,1-2.91-.71-3.81-3.05-4.31-2.74-.58-5.49-1.11-6.8-1.37a25.66,25.66,0,0,0-4.13.27l-6.47,18a22.91,22.91,0,0,0,5,2.62c2.59,1.3,7.51,1.94,7,5.77-.3,1.75-1.73,2.37-3.18,2.67-3.26.68-6.29-.36-9.05-1.87-1.38-.75-2.3-.81-3-.23l-1.72,4.77c.19.61.72,1.16,1.88,1.63a27.27,27.27,0,0,0,12.58,2.14c6.93-.58,11.24-3.84,12-9C194.77,68.94,191.65,64.75,184.82,62.18Z"/><path class="cls-1" d="M168.22,56.41a8.45,8.45,0,0,0,2.15,7.8L176,48.57C171.64,49.92,169,52.71,168.22,56.41Z"/><path class="cls-1" d="M168.08,76.58c-.43,1.12-.94,2.16-.66,3.07l1.72-4.77A4,4,0,0,0,168.08,76.58Z"/><path class="cls-1" d="M170.37,64.21a13.07,13.07,0,0,0,2,1.71l6.47-18a19.58,19.58,0,0,0-2.83.63Z"/><path class="cls-1" d="M155.65,81.78c.85.9,2.59,1.93,4,.92l-5-1.8A6.92,6.92,0,0,1,155.65,81.78Z"/><path class="cls-1" d="M132.58,76.14c2.63,7,10.24,9.59,16.69,5.63,1.37-.84,2.47-1.52,3.6-1.51l-21.37-7.7A27.69,27.69,0,0,0,132.58,76.14Z"/><path class="cls-1" d="M161.44,77.21c-1.34-2-1.12-4.38-1.11-6.68-.06-3.14-.05-6.28,0-9.43a2.51,2.51,0,0,1-.27,0,1.23,1.23,0,0,1-.69-.64l-.62-1.34a1.24,1.24,0,0,1,.59-1.64,1.18,1.18,0,0,1,1,0c.08-7.44.17-14.89-.27-22.25-.9-3.39-3.81-3.07-6.46-3.09a2.49,2.49,0,0,0-1.8.51l.34.72a1.25,1.25,0,0,1-.59,1.65,1.46,1.46,0,0,1-.2.05c0,.34.06.67.06,1-.1,4.38,0,8.76,0,13.24-10.84-2.66-16.51,0-19.41,9.07h0a1.7,1.7,0,0,1,.1.14l.62,1.34a1.24,1.24,0,0,1-.59,1.64,1.2,1.2,0,0,1-.91,0,25.65,25.65,0,0,0-.23,8.24l10.56,3.8a15,15,0,0,1-1-3.85A20.27,20.27,0,0,1,141.26,59c1-2.62,2.57-4.69,5.83-4.19s4.9,2.26,4.34,5.76a30.78,30.78,0,0,0,0,4.9,28,28,0,0,0,0,3.43c.43,3.54-.83,6-3.77,6.82l13.68,4.92.15,0A2.76,2.76,0,0,0,161.44,77.21ZM144.34,55a1.21,1.21,0,0,1-.93,0,1.25,1.25,0,0,1-.7-.64l-.62-1.34a1.24,1.24,0,0,1,.59-1.64,1.21,1.21,0,0,1,1.63.59l.63,1.33A1.25,1.25,0,0,1,144.34,55ZM156,47.4a1.23,1.23,0,0,1-.94.05,1.2,1.2,0,0,1-.69-.64l-.63-1.34a1.25,1.25,0,0,1,.59-1.64,1.23,1.23,0,0,1,1.64.59l.62,1.33A1.25,1.25,0,0,1,156,47.4Z"/><path class="cls-1" d="M155.92,44.42a1.23,1.23,0,0,0-1.64-.59,1.25,1.25,0,0,0-.59,1.64l.63,1.34a1.2,1.2,0,0,0,.69.64,1.23,1.23,0,0,0,.94-.05,1.25,1.25,0,0,0,.59-1.65Z"/><path class="cls-1" d="M152.15,33.33l-.34-.72c-.6.56-.52,1.51-.45,2.42a1.46,1.46,0,0,0,.2-.05A1.25,1.25,0,0,0,152.15,33.33Z"/><path class="cls-1" d="M161.47,80.71l-.15,0-13.68-4.92a7.9,7.9,0,0,1-1.71.3,4,4,0,0,1-4.41-2.51L131,69.74a24.6,24.6,0,0,0,.54,2.82l21.37,7.7a3.06,3.06,0,0,1,1.78.64l5,1.8a3,3,0,0,0,.43-.39A16.43,16.43,0,0,0,161.47,80.71Z"/><path class="cls-1" d="M132.1,61.45a1.24,1.24,0,0,0,.59-1.64l-.62-1.34a1.7,1.7,0,0,0-.1-.14,26.62,26.62,0,0,0-.78,3.17A1.2,1.2,0,0,0,132.1,61.45Z"/><path class="cls-1" d="M159.32,57.44a1.24,1.24,0,0,0-.59,1.64l.62,1.34a1.23,1.23,0,0,0,.69.64,2.51,2.51,0,0,0,.27,0l0-3.66A1.18,1.18,0,0,0,159.32,57.44Z"/><path class="cls-1" d="M144.31,52a1.21,1.21,0,0,0-1.63-.59,1.24,1.24,0,0,0-.59,1.64l.62,1.34a1.25,1.25,0,0,0,.7.64,1.21,1.21,0,0,0,.93,0,1.25,1.25,0,0,0,.6-1.65Z"/><path class="cls-1" d="M100.17,49.6c-2.72.72-3.3,2.13-2.53,4.63.83,2.7,2.48,2.89,4.88,2.11a23.9,23.9,0,0,1,5.54-1.44l2.6-7.21A43,43,0,0,0,100.17,49.6Z"/><path class="cls-1" d="M124.37,60c.1-8.72-4.88-11.85-11.12-12.28l-2.55,7.08c2.71.22,4.85,1.56,4.71,5.16s-2.69,1.21-4.07,1.54a14.74,14.74,0,0,1-1.48.25,2.87,2.87,0,0,0,1.17.81l13.43,4.83c0-.31,0-.62-.09-.92C124.37,63.93,124.38,62,124.37,60Z"/><path class="cls-1" d="M107.11,62a17.19,17.19,0,0,0-2.14.29c-4.78,1-8,3.72-9,8.62-.8,4,.14,7.62,3.37,10.15a11.15,11.15,0,0,0,13,1c2.92-1.68,5.11-2.76,7.86,0,.76.78,2.29,1.61,3.57.36s3-2.66,2.08-4.06c-1.72-2.77-1.53-5.65-1.41-8.33L110.2,64.9A5.39,5.39,0,0,1,107.11,62Zm8.3,8.66c.49,4.72-2.89,5.45-6.2,5.89-2.78.37-4.45-1.29-4.51-3.94-.09-4.17,3.06-5,6.35-5.13C113.29,67.39,116,67.05,115.41,70.68Z"/><path class="cls-1" d="M110.7,54.81l2.55-7.08a24.7,24.7,0,0,0-2.59,0l-2.6,7.21A13.11,13.11,0,0,1,110.7,54.81Z"/><path class="cls-1" d="M124.46,67.4,111,62.57a2.87,2.87,0,0,1-1.17-.81c-.91.12-1.83.17-2.75.26a5.39,5.39,0,0,0,3.09,2.88L124.45,70A25.68,25.68,0,0,0,124.46,67.4Z"/><path class="cls-1" d="M24.61,57.84c5.47-4.8,7.11-9.57,5-14.87-2.28-5.7-7.17-7.26-12.83-7.26-4,0-7.95.25-11.91.09-2.45-.09-3,.78-3,3.07.09,13.57,0,27.15,0,40.72,0,1.5-.17,2.93,2.13,3,10.36.47,26.18,2.29,28.54-10.47C33.6,66.64,30.9,61.68,24.61,57.84ZM7,48.74c.32-2.86-1.34-7.5.81-8.23a18.33,18.33,0,0,1,13.51.67c3.29,1.55,3.91,4.69,3.51,8-1,6.89-7,6.53-13.19,6.67C7.52,57,6.25,54.37,7,49.72,7.07,49.4,7,49.06,7,48.74Zm9.68,29.54c-9.15.12-9.88.41-9.69-9.13C7,60,7,60,16.46,60.27c6.62.19,10.47,3.63,10.45,9.29S23.51,78.14,16.71,78.28Z"/><path class="cls-1" d="M80.4,48.79c-15.71-4.74-22,14.36-16.81,26.35,3.23,8.41,16.93,11.2,23.55,5a1.86,1.86,0,0,0,.54-2.52c-.61-1.3-1.34-1.51-2.74-1C78.61,79.32,71,81,68.1,73.09c-1.82-5.06-1.31-5.77,4.18-5.78,4.64,0,9.28-.07,13.92,0,1.66,0,2.7-.2,3.13-2.15C90.73,58.85,86.38,50.69,80.4,48.79Zm1.65,14.6c-3.13-.06-6.25,0-9.38,0-6,0-6.55-.77-4.12-6.17,1.88-4.18,5.29-5.91,9.54-4.82,3.51.9,6.21,5.11,6,9.07C84.06,63,83.43,63.42,82.05,63.39Z"/><path class="cls-1" d="M10.36,104.4H3l-1.58,3.51H0L6,94.77H7.39l6,13.14H11.94Zm-.51-1.13-3.16-7-3.15,7Z"/><path class="cls-1" d="M19.91,94.77h5.36c4.21,0,7.05,2.7,7.05,6.57s-2.84,6.57-7,6.57H19.91Zm5.29,11.94c3.49,0,5.75-2.22,5.75-5.37S28.69,96,25.2,96H21.3v10.74Z"/><path class="cls-1" d="M38.51,106.31l.54-1.07a6.49,6.49,0,0,0,4.35,1.6c2.46,0,3.53-1,3.53-2.33,0-3.6-8.1-1.39-8.1-6.25,0-1.93,1.5-3.6,4.85-3.6a7.46,7.46,0,0,1,4.08,1.16l-.47,1.11a6.82,6.82,0,0,0-3.61-1.09c-2.41,0-3.48,1.07-3.48,2.38,0,3.61,8.1,1.43,8.1,6.22,0,1.93-1.54,3.58-4.9,3.58A7.11,7.11,0,0,1,38.51,106.31Z"/><path class="cls-1" d="M66.6,94.77l-5.83,13.14H59.4L53.57,94.77h1.51l5,11.41,5.08-11.41Z"/><path class="cls-1" d="M82.13,106.71v1.2h-9.3V94.77h9V96H74.22v4.68H81v1.18h-6.8v4.88Z"/><path class="cls-1" d="M98.72,107.91l-3-4.22c-.34,0-.68,0-1,0H91.12v4.17H89.73V94.77h4.93c3.34,0,5.37,1.69,5.37,4.51a4.06,4.06,0,0,1-3,4.12l3.22,4.51Zm-.08-8.63c0-2.11-1.39-3.31-4-3.31h-3.5v6.59h3.5C97.25,102.56,98.64,101.34,98.64,99.28Z"/><path class="cls-1" d="M110,96h-4.63v-1.2H116V96h-4.62v11.94H110Z"/><path class="cls-1" d="M122.58,94.77H124v13.14h-1.39Z"/><path class="cls-1" d="M131.32,106.31l.55-1.07a6.46,6.46,0,0,0,4.34,1.6c2.46,0,3.54-1,3.54-2.33,0-3.6-8.11-1.39-8.11-6.25,0-1.93,1.51-3.6,4.85-3.6a7.43,7.43,0,0,1,4.08,1.16l-.47,1.11a6.8,6.8,0,0,0-3.61-1.09c-2.4,0-3.48,1.07-3.48,2.38,0,3.61,8.11,1.43,8.11,6.22,0,1.93-1.54,3.58-4.91,3.58A7.13,7.13,0,0,1,131.32,106.31Z"/><path class="cls-1" d="M148.47,94.77h1.39v13.14h-1.39Z"/><path class="cls-1" d="M169.47,94.77v13.14h-1.14l-8.46-10.66v10.66h-1.4V94.77h1.15l8.48,10.66V94.77Z"/><path class="cls-1" d="M187.35,101.34h1.34v5a7.26,7.26,0,0,1-4.83,1.67,6.69,6.69,0,1,1,0-13.36,6.49,6.49,0,0,1,4.88,1.89l-.86.89a5.55,5.55,0,1,0-4,9.34,5.7,5.7,0,0,0,3.44-1Z"/></g></g></g></svg>